# Blender 3.3.1
# www.blender.org
mtllib Stairs.mtl
o Cube
v -0.500000 -0.500000 0.500000
v 0.500000 -0.500000 0.500000
v 0.250000 -0.500000 -0.500000
v 0.500000 -0.500000 -0.500000
v -0.500000 0.500000 0.500000
v 0.500000 0.500000 0.500000
v 0.250000 0.500000 -0.500000
v 0.500000 0.500000 -0.500000
v -0.500000 -0.500000 0.250000
v -0.250000 -0.500000 0.000000
v 0.000000 -0.500000 -0.250000
v 0.000000 0.500000 -0.250000
v -0.250000 0.500000 0.000000
v -0.500000 0.500000 0.250000
v 0.250000 -0.500000 -0.250000
v 0.000000 -0.500000 0.000000
v -0.250000 -0.500000 0.250000
v 0.250000 0.500000 -0.250000
v 0.000000 0.500000 0.000000
v -0.250000 0.500000 0.250000
vn -0.0000 -0.0000 -1.0000
vn -1.0000 -0.0000 -0.0000
vn 1.0000 -0.0000 -0.0000
vn -0.0000 1.0000 -0.0000
vn -0.0000 -0.0000 1.0000
vn -0.0000 -1.0000 -0.0000
vt 0.999375 0.334167
vt 0.500625 0.999167
vt 0.500625 0.333333
vt 0.999375 0.999167
vt 0.500625 0.665833
vt 0.000625 0.333333
vt 0.500625 0.084167
vt 0.999375 0.000833
vt 0.125625 0.666667
vt 0.500625 0.000833
vt 0.999375 0.665833
vt 0.000625 0.666667
vt 0.499375 0.334167
vt 0.000625 0.999167
vt 0.999375 0.666667
vt 0.499375 0.999167
vt 0.999375 0.333333
vt 0.000625 0.665833
vt 0.000625 0.084167
vt 0.499375 0.000833
vt 0.499375 0.416667
vt 0.000625 0.000833
vt 0.499375 0.665833
vt 0.499375 0.333333
vt 0.999375 0.250833
vt 0.500625 0.334167
vt 0.500625 0.416667
vt 0.500625 0.250833
vt 0.999375 0.167500
vt 0.375625 0.500000
vt 0.500625 0.167500
vt 0.999375 0.084167
vt 0.250625 0.583333
vt 0.000625 0.167500
vt 0.499375 0.084167
vt 0.624375 0.500000
vt 0.000625 0.250833
vt 0.499375 0.167500
vt 0.749375 0.583333
vt 0.499375 0.250833
vt 0.000625 0.334167
vt 0.874375 0.666667
vt 0.999375 0.084167
vt 0.500625 0.084167
vt 0.125625 0.583333
vt 0.999375 0.167500
vt 0.500625 0.167500
vt 0.250625 0.500000
vt 0.999375 0.250833
vt 0.500625 0.250833
vt 0.375625 0.416667
vt 0.499375 0.084167
vt 0.000625 0.084167
vt 0.624375 0.416667
vt 0.499375 0.167500
vt 0.000625 0.167500
vt 0.749375 0.500000
vt 0.499375 0.250833
vt 0.000625 0.250833
vt 0.874375 0.583333
s 0
usemtl Material
f 4/10/1 3/7/1 7/19/1 8/22/1
f 1/1/2 5/13/2 14/40/2 9/25/2
f 3/8/2 15/43/2 18/52/2 7/20/2
f 15/44/1 11/31/1 12/34/1 18/53/1
f 16/46/2 19/55/2 12/35/2 11/32/2
f 19/56/1 16/47/1 10/28/1 13/37/1
f 13/38/2 10/29/2 17/49/2 20/58/2
f 17/50/1 9/26/1 14/41/1 20/59/1
f 4/11/3 8/23/3 6/16/3 2/4/3
f 6/17/4 8/24/4 5/15/4
f 5/14/5 1/2/5 2/5/5 6/18/5
f 2/6/6 1/3/6 4/12/6
f 5/15/4 20/60/4 14/42/4
f 19/57/4 13/39/4 20/60/4
f 18/54/4 12/36/4 19/57/4
f 7/21/4 18/54/4 8/24/4
f 3/9/6 4/12/6 15/45/6
f 11/33/6 15/45/6 16/48/6
f 10/30/6 16/48/6 17/51/6
f 9/27/6 17/51/6 1/3/6
