# Blender 3.3.1
# www.blender.org
mtllib Torch.mtl
o Cube
v 0.666667 -0.333333 -1.000000
v 0.666667 0.333333 -1.000000
v 0.333333 0.666667 -1.000000
v -0.333333 0.666667 -1.000000
v 0.333333 1.000000 -1.000000
v -0.333333 1.000000 -1.000000
v 0.225000 -0.675000 0.600000
v -0.225000 -0.675000 0.600000
v -0.333333 -1.000000 -1.000000
v 0.333333 -1.000000 -1.000000
v -0.225000 0.675000 0.600000
v 0.225000 0.675000 0.600000
v -1.000000 0.333333 -1.000000
v -1.000000 -0.333333 -1.000000
v 0.675000 0.225000 0.600000
v 0.675000 -0.225000 0.600000
v -0.675000 -0.225000 0.600000
v -0.675000 0.225000 0.600000
v 1.000000 -0.333333 -1.000000
v 1.000000 0.333333 -1.000000
v 0.000000 0.000000 1.000000
v 0.333333 0.333333 0.000000
v 0.333333 -0.333333 0.000000
v -0.333333 0.333333 0.000000
v -0.333333 -0.333333 0.000000
v -0.333333 0.333333 -0.500000
v 0.333333 0.333333 -0.500000
v 0.333333 -0.333333 -0.500000
v -0.333333 -0.333333 -0.500000
v -0.666667 0.333333 -1.000000
v -0.666667 -0.333333 -1.000000
v -0.333333 -0.666667 -1.000000
v 0.333333 -0.666667 -1.000000
v -0.333333 0.333333 0.250000
v 0.333333 0.333333 0.250000
v 0.333333 -0.333333 0.250000
v -0.333333 -0.333333 0.250000
v -0.250000 0.750000 0.600000
v 0.250000 0.750000 0.600000
v 0.750000 0.250000 0.600000
v 0.750000 -0.250000 0.600000
v 0.250000 -0.750000 0.600000
v -0.250000 -0.750000 0.600000
v -0.750000 -0.250000 0.600000
v -0.750000 0.250000 0.600000
v -0.333333 0.333333 0.425000
v 0.333333 0.333333 0.425000
v 0.333333 -0.333333 0.425000
v -0.333333 -0.333333 0.425000
v -0.250000 0.250000 0.762500
v 0.250000 0.250000 0.762500
v 0.250000 -0.250000 0.762500
v -0.250000 -0.250000 0.762500
vn -0.0000 -0.0000 1.0000
vn -0.0000 -0.0000 -1.0000
vn -0.0000 -1.0000 -0.0000
vn -0.0000 1.0000 -0.0000
vn 0.8321 -0.0000 0.5547
vn -0.8321 -0.0000 -0.5547
vn -0.0000 -0.8321 0.5547
vn -0.0000 0.8321 0.5547
vn -0.0000 -0.8321 -0.5547
vn 0.8321 -0.0000 -0.5547
vn -0.8321 -0.0000 0.5547
vn -0.0000 0.8321 -0.5547
vn 1.0000 -0.0000 -0.0000
vn -1.0000 -0.0000 -0.0000
vn -0.0000 -0.8214 -0.5704
vn -0.0915 -0.9878 0.1262
vn -0.0915 0.9878 0.1262
vn -0.9878 0.0915 0.1262
vn 0.9878 0.0915 0.1262
vn 0.0915 0.9878 0.1262
vn 0.0915 -0.9878 0.1262
vn 0.9878 -0.0915 0.1262
vn -0.9878 -0.0915 0.1262
vn -0.0000 0.7156 0.6985
vn 0.7156 -0.0000 0.6985
vn -0.8214 -0.0000 -0.5704
vn -0.0000 0.8214 -0.5704
vn 0.8214 -0.0000 -0.5704
vn -0.0000 -0.7156 0.6985
vn -0.7156 -0.0000 0.6985
vn 0.9708 -0.0000 0.2397
vn -0.9708 -0.0000 0.2397
vn -0.0000 0.9708 0.2397
vn -0.0000 -0.9708 0.2397
vn -0.0000 -0.6887 0.7250
vn -0.0000 0.6887 0.7250
vn -0.6887 -0.0000 0.7250
vn 0.6887 -0.0000 0.7250
vt 0.733308 0.033508
vt 0.111529 0.823392
vt 0.201383 0.817615
vt 0.111529 0.675902
vt 0.700997 0.109932
vt 0.968174 0.790569
vt 0.391668 0.947256
vt 0.703024 0.762645
vt 0.968174 0.938058
vt 0.391668 0.799767
vt 0.857397 0.229502
vt 0.926687 0.790569
vt 0.476002 0.280250
vt 0.633073 0.785992
vt 0.926687 0.938058
vt 0.623492 0.280250
vt 0.918732 0.270445
vt 0.889934 0.944230
vt 0.855327 0.653236
vt 0.962207 0.682753
vt 0.855327 0.553680
vt 0.466421 0.361603
vt 0.466421 0.352022
vt 0.742888 0.261070
vt 0.318932 0.361603
vt 0.318932 0.352022
vt 0.306964 0.866881
vt 0.299565 0.376226
vt 0.581330 0.938774
vt 0.891051 0.440220
vt 0.299565 0.475781
vt 0.022363 0.986013
vt 0.891051 0.340664
vt 0.161861 0.004790
vt 0.004790 0.586366
vt 0.026967 0.666321
vt 0.309351 0.004790
vt 0.935054 0.780988
vt 0.944964 0.143034
vt 0.557165 0.908635
vt 0.969120 0.200842
vt 0.060507 0.983911
vt 0.557165 0.809080
vt 0.974649 0.231059
vt 0.416717 0.951426
vt 0.714236 0.919096
vt 0.944536 0.286000
vt 0.714236 0.819540
vt 0.665384 0.004790
vt 0.004790 0.004790
vt 0.132053 0.842747
vt 0.152280 0.004790
vt 0.633073 0.081215
vt 0.623492 0.187696
vt 0.780563 0.520132
vt 0.623492 0.775532
vt 0.279543 0.591645
vt 0.780563 0.316697
vt 0.697695 0.307116
vt 0.476002 0.545000
vt 0.703024 0.529713
vt 0.132053 0.370695
vt 0.036176 0.832973
vt 0.969120 0.004790
vt 0.318932 0.628584
vt 0.152280 0.233215
vt 0.476002 0.004790
vt 0.201383 0.601226
vt 0.306964 0.601226
vt 0.318932 0.090625
vt 0.279543 0.370695
vt 0.075279 0.832973
vt 0.889934 0.790569
vt 0.004790 0.233215
vt 0.633073 0.316697
vt 0.623492 0.545000
vt 0.918732 0.004790
vt 0.098029 0.370695
vt 0.623492 0.554581
vt 0.953990 0.426020
vt 0.581330 0.785112
vt 0.161861 0.233215
vt 0.466421 0.628584
vt 0.623492 0.004790
vt 0.812840 0.004790
vt 0.935054 0.529713
vt 0.466421 0.090625
vt 0.476002 0.554581
vt 0.416717 0.799767
vt 0.976020 0.529713
vt 0.309351 0.233215
vt 0.318932 0.799767
vt 0.747581 0.834273
vt 0.466421 0.619003
vt 0.857397 0.096675
vt 0.122472 0.458820
vt 0.004790 0.675902
vt 0.733308 0.222883
vt 0.318932 0.947256
vt 0.318932 0.619003
vt 0.738000 0.634505
vt 0.004790 0.823392
vt 0.236048 0.696854
vt 0.245629 0.693111
vt 0.318932 0.536029
vt 0.747581 0.686784
vt 0.847816 0.109583
vt 0.466421 0.536029
vt 0.875349 0.612064
vt 0.854319 0.834273
vt 0.075853 0.566656
vt 0.098029 0.646611
vt 0.854319 0.686784
vt 0.875349 0.737702
vt 0.466421 0.403090
vt 0.812840 0.237723
vt 0.318932 0.403090
vt 0.245629 0.825938
vt 0.974649 0.388327
vt 0.608503 0.833205
vt 0.633073 0.795573
vt 0.790143 0.464187
vt 0.004790 0.878428
vt 0.985693 0.044450
vt 0.790143 0.316697
vt 0.476002 0.932602
vt 0.045757 0.874385
vt 0.917106 0.838661
vt 0.747581 0.677203
vt 0.476002 0.785113
vt 0.442066 0.843858
vt 0.944635 0.575168
vt 0.747581 0.529713
vt 0.633073 0.943063
vt 0.289123 0.370695
vt 0.566746 0.946693
vt 0.447985 0.790186
vt 0.289123 0.481312
vt 0.036176 0.995210
vt 0.337368 0.790186
vt 0.928313 0.146220
vt 0.133844 0.361114
vt 0.955153 0.210451
vt 0.075279 0.991773
vt 0.023227 0.361114
vt 0.865769 0.658766
vt 0.337368 0.004790
vt 0.875349 0.952149
vt 0.865769 0.548149
vt 0.447985 0.004790
vt 0.976020 0.691950
vt 0.961771 0.220032
vt 0.401249 0.957811
vt 0.290915 0.361114
vt 0.928313 0.281078
vt 0.180297 0.361114
vt 0.623492 0.692675
vt 0.633073 0.443844
vt 0.132053 0.508789
vt 0.780563 0.443844
vt 0.279543 0.508789
vt 0.476002 0.119106
vt 0.476002 0.692675
vt 0.623492 0.119106
vt 0.633073 0.481988
vt 0.623492 0.734103
vt 0.780563 0.481988
vt 0.132053 0.550217
vt 0.476002 0.153401
vt 0.279543 0.550217
vt 0.623492 0.153401
vt 0.476002 0.734103
s 0
usemtl Material
f 38/135/1 11/28/1 12/31/1 39/138/1
f 32/115/2 33/117/2 10/25/2 9/22/2
f 42/146/1 7/19/1 8/21/1 43/149/1
f 40/141/1 15/39/1 16/41/1 41/143/1
f 2/5/2 20/53/2 19/49/2 1/1/2
f 44/152/1 17/44/1 18/47/1 45/155/1
f 49/164/3 25/84/3 23/67/3 48/162/3
f 13/35/2 30/111/2 31/112/2 14/36/2
f 47/160/4 22/58/4 24/75/4 46/158/4
f 19/50/5 20/52/5 22/66/5 23/74/5
f 2/4/6 1/2/6 28/102/6 27/97/6
f 6/15/2 5/12/2 3/6/2 4/9/2
f 9/23/7 10/26/7 23/70/7 25/87/7
f 22/59/4 20/53/4 2/5/4 27/98/4
f 19/51/3 23/68/3 28/103/3 1/3/3
f 5/13/8 6/16/8 24/76/8 22/60/8
f 3/7/9 27/99/9 26/92/9 4/10/9
f 31/113/10 30/110/10 26/93/10 29/106/10
f 13/34/11 14/37/11 25/91/11 24/82/11
f 29/108/12 28/105/12 33/117/12 32/115/12
f 10/27/13 33/118/13 28/104/13 23/69/13
f 32/116/14 9/24/14 25/85/14 29/107/14
f 28/105/2 29/108/2 26/94/2 27/100/2
f 27/101/13 3/8/13 5/14/13 22/61/13
f 4/11/14 26/95/14 24/77/14 6/17/14
f 30/111/4 13/35/4 24/78/4 26/96/4
f 31/114/3 29/109/3 25/86/3 14/38/3
f 23/70/15 42/147/15 43/150/15 25/87/15
f 49/163/14 46/157/14 24/79/14 25/88/14
f 47/159/13 48/161/13 23/71/13 22/62/13
f 17/45/16 44/153/16 25/89/16 37/131/16
f 45/155/17 18/47/17 34/119/17 24/80/17
f 11/29/18 38/136/18 24/81/18 34/120/18
f 39/139/19 12/32/19 35/123/19 22/63/19
f 15/39/20 40/141/20 22/64/20 35/124/20
f 41/144/21 16/42/21 36/127/21 23/72/21
f 7/18/22 42/148/22 23/73/22 36/128/22
f 43/151/23 8/20/23 37/132/23 25/90/23
f 8/21/24 7/19/24 36/129/24 37/133/24
f 18/48/25 17/46/25 37/134/25 34/121/25
f 45/156/26 24/82/26 25/91/26 44/154/26
f 24/83/27 38/137/27 39/140/27 22/65/27
f 41/145/28 23/74/28 22/66/28 40/142/28
f 12/33/29 11/30/29 34/122/29 35/125/29
f 16/43/30 15/40/30 35/126/30 36/130/30
f 51/168/31 52/170/31 48/161/31 47/159/31
f 53/172/32 50/166/32 46/157/32 49/163/32
f 51/167/33 47/160/33 46/158/33 50/165/33
f 53/171/34 49/164/34 48/162/34 52/169/34
f 21/54/35 53/171/35 52/169/35
f 21/55/36 51/167/36 50/165/36
f 21/56/37 50/166/37 53/172/37
f 21/57/38 52/170/38 51/168/38
