# Blender v2.92.0 OBJ File: ''
# www.blender.org
mtllib wall.mtl
o Cube
v -1.000000 -1.000000 -0.500000
v -1.000000 -1.000000 0.500000
v 1.000000 1.000000 0.500000
v 1.000000 1.000000 -0.500000
v -1.000000 1.000000 -0.500000
v -1.000000 1.000000 0.500000
v 0.000000 -1.000000 0.500000
v 0.000000 -1.000000 -0.500000
v 1.000000 0.000000 0.500000
v 1.000000 0.000000 -0.500000
v 0.000000 0.000000 -0.500000
v 0.000000 0.000000 0.500000
vt 0.500000 0.500000
vt 0.750000 0.500000
vt 0.750000 1.000000
vt 0.500000 1.000000
vt 1.000000 0.000000
vt 1.000000 0.250000
vt 0.750000 0.250000
vt 0.750000 0.000000
vt 0.250000 0.750000
vt 0.500000 1.000000
vt 0.000000 1.000000
vt 0.500000 0.500000
vt 0.250000 0.500000
vt 0.250000 0.250000
vt 0.750000 1.000000
vt 0.750000 0.750000
vt 1.000000 0.750000
vt 1.000000 1.000000
vt 1.000000 0.500000
vt 0.750000 0.500000
vt 0.500000 0.750000
vt 0.000000 0.500000
vt 0.250000 0.500000
vt 0.000000 0.250000
vt 0.000000 0.000000
vt 0.500000 0.000000
vt 0.750000 0.000000
vt 0.750000 0.500000
vt 0.750000 0.750000
vt 0.750000 0.500000
vt 1.000000 0.500000
vt 1.000000 0.750000
vn -1.0000 0.0000 0.0000
vn 0.0000 -1.0000 0.0000
vn 0.0000 0.0000 1.0000
vn 0.0000 0.0000 -1.0000
vn 1.0000 0.0000 0.0000
vn 0.0000 1.0000 0.0000
usemtl Material
s off
f 1/1/1 2/2/1 6/3/1 5/4/1
f 9/5/2 12/6/2 11/7/2 10/8/2
f 12/9/3 3/10/3 6/11/3
f 4/12/4 10/13/4 11/14/4
f 4/15/5 3/16/5 9/17/5 10/18/5
f 11/7/5 12/6/5 7/19/5 8/20/5
f 12/9/3 9/21/3 3/10/3
f 6/11/3 2/22/3 12/9/3
f 2/22/3 7/23/3 12/9/3
f 8/24/4 1/25/4 11/14/4
f 1/25/4 5/26/4 11/14/4
f 5/26/4 4/12/4 11/14/4
f 4/12/6 5/26/6 6/27/6 3/28/6
f 8/29/2 7/30/2 2/31/2 1/32/2
